# xmcd
#
# Track frame offsets:
#	150
#	8006
#	31812
#	69776
#	121517
#
# Disc length: 1779 seconds
#
# Revision: 1
# Processed by: cddbd v1.5.2PL0 Copyright (c) Steve Scherf et al.
# Submitted via: audiograbber 1.83.01
#
DISCID=2806f105
DTITLE=Grateful Dead - 68-11-22 Veterans Hall, Columbus OH
DYEAR=1900
DGENRE=
TTITLE0=Cryptical Envelopment
TTITLE1=The Other One
TTITLE2=Cryptical Envelopment
TTITLE3=New Potato Caboose
TTITLE4=We Bid You Goodnight
EXTD=
EXTT0=
EXTT1=
EXTT2=
EXTT3=
EXTT4=
PLAYORDER=
